<svg viewBox="0 0 1000 1000" xmlns="http://www.w3.org/2000/svg" xml:space="preserve" style="fill-rule:evenodd;clip-rule:evenodd;stroke-linejoin:round;stroke-miterlimit:2"><path style="fill:#7fff7f" d="M258.194 741.937h79.044v79.044h-79.044z" transform="matrix(5.33718 0 0 5.33718 -847.028 -3428.86)"/><path d="M339.873 741.937v79.044a2.635 2.635 0 0 1-2.635 2.635h-79.044a2.635 2.635 0 0 1-2.635-2.635v-79.044a2.635 2.635 0 0 1 2.635-2.635h79.044a2.635 2.635 0 0 1 2.635 2.635Zm-5.27 2.635h-73.774v73.775h73.774v-73.775Z" style="fill:#3f3f3f" transform="matrix(5.33718 0 0 5.33718 -847.028 -3428.86)"/><path d="M337.238 741.937h-79.044v-79.044c43.626 0 79.044 35.418 79.044 79.044Z" style="fill:#ff7fff" transform="matrix(5.33718 0 0 5.33718 -847.028 -3490.855)"/><path d="M337.238 744.572h-79.044a2.635 2.635 0 0 1-2.635-2.635v-79.044a2.635 2.635 0 0 1 2.635-2.635c45.08 0 81.679 36.599 81.679 81.679a2.635 2.635 0 0 1-2.635 2.635Zm-2.679-5.27c-1.361-40.079-33.651-72.369-73.73-73.73v73.73h73.73Z" style="fill:#3f3f3f" transform="matrix(5.33718 0 0 5.33718 -847.028 -3490.855)"/><path d="M180.148 820.981h-78.046l39.023-79.044h39.023v79.044Z" style="fill:#7e7eff" transform="matrix(5.40548 0 0 5.33718 -504.783 -3428.859)"/><path d="M180.148 823.616h-78.046a2.595 2.595 0 0 1-2.213-1.249 2.666 2.666 0 0 1-.114-2.564l39.023-79.044a2.6 2.6 0 0 1 2.327-1.457h39.023c1.437 0 2.601 1.18 2.601 2.635v79.044c0 1.456-1.164 2.635-2.601 2.635Zm-2.602-5.269v-73.775h-34.813l-36.422 73.775h71.235Z" style="fill:#3f3f3f" transform="matrix(5.40548 0 0 5.33718 -504.783 -3428.859)"/><path d="M183.018 717.511h57.429l17.747-54.618v71.496h-51.945l-23.231-16.878Z" style="fill:#ffff80" transform="matrix(5.61185 0 0 5.90062 -979.939 -3864.362)"/><path d="M183.018 715.128h55.581l17.201-52.939c.366-1.126 1.542-1.829 2.768-1.653 1.225.176 2.132 1.178 2.132 2.357v71.496c0 1.316-1.122 2.383-2.506 2.383h-51.945c-.55 0-1.085-.172-1.522-.489l-23.23-16.878c-.854-.621-1.197-1.69-.853-2.658.345-.968 1.3-1.619 2.374-1.619Zm7.408 4.766 16.67 12.112h48.592v-53.329l-12.847 39.538c-.324.998-1.295 1.679-2.394 1.679h-50.021Z" style="fill:#3f3f3f" transform="matrix(5.61185 0 0 5.90062 -979.939 -3864.362)"/></svg>
