<svg viewBox="0 0 16 16" xmlns="http://www.w3.org/2000/svg" xml:space="preserve" style="fill-rule:evenodd;clip-rule:evenodd;stroke-linejoin:round;stroke-miterlimit:2"><path d="M258.194 732.047h79.044c5.462 0 9.89 4.428 9.89 9.89v79.044c0 5.462-4.428 9.89-9.89 9.89h-79.044c-5.462 0-9.89-4.428-9.89-9.89v-79.044c0-5.462 4.428-9.89 9.89-9.89Zm9.89 19.78v59.264h59.264v-59.264h-59.264Z" style="fill:whitesmoke" transform="matrix(.07078 0 0 .07078 -8.82 -43.058)"/><path d="M337.238 751.827h-79.044c-5.462 0-9.89-4.428-9.89-9.89v-79.044c0-5.462 4.428-9.89 9.89-9.89 49.084 0 88.934 39.85 88.934 88.934 0 5.462-4.428 9.89-9.89 9.89Zm-10.593-19.779c-4.34-30.261-28.302-54.222-58.561-58.562v58.561l58.561.001Z" style="fill:whitesmoke" transform="matrix(.07078 0 0 .07078 -8.82 -45.97)"/><path d="M180.148 830.871h-78.046c-3.384 0-6.527-1.775-8.307-4.691a9.998 9.998 0 0 1-.427-9.622l39.023-79.044c1.654-3.35 5.035-5.467 8.734-5.467h39.023c5.393 0 9.765 4.428 9.765 9.89v79.044c0 5.462-4.372 9.89-9.765 9.89Zm-9.765-19.78v-59.264H147.16l-29.258 59.264h52.481Z" style="fill:whitesmoke" transform="matrix(.07168 0 0 .07078 -6.37 -43.058)"/><path d="m183.018 708.565 50.491.001 15.698-48.314c1.374-4.228 5.791-6.865 10.391-6.204 4.601.66 8.002 4.42 8.002 8.845v71.496c0 4.94-4.211 8.946-9.406 8.946h-51.945a9.728 9.728 0 0 1-5.71-1.837l-23.231-16.878c-3.205-2.329-4.492-6.342-3.2-9.975 1.292-3.634 4.877-6.08 8.91-6.08Z" style="fill:whitesmoke" transform="matrix(.07442 0 0 .07825 -12.67 -50.922)"/></svg>
